<?xml version="1.0" standalone="no"?><svg xmlns="http://www.w3.org/2000/svg" viewBox="0 0 1440 320"><path fill="#0099ff" fill-opacity="1.59" d="M0,224L40,208C80,192,160,160,240,122.7C320,85,400,43,480,37.3C560,32,640,64,720,112C800,160,880,224,960,229.3C1040,235,1120,181,1200,154.7C1280,128,1360,128,1400,128L1440,128L1440,320L1400,320C1360,320,1280,320,1200,320C1120,320,1040,320,960,320C880,320,800,320,720,320C640,320,560,320,480,320C400,320,320,320,240,320C160,320,80,320,40,320L0,320Z"></path></svg>